REM DIRINDEX 1\2\5,1\2\6,1\2\7,1\2\8,1\3\9,1\3\10,1\3\11,1\4\12,1\4\13,1\4\14,1\4\15,1\4\16
REM DIRNAME cjc034,folder01,folder02,folder03,folder04,folder05,folder06,folder07,folder08,folder09,folder10,folder11,folder12,folder13,folder14,folder15
TITLE ""
FILE "1200_sec04_1411_1420.mp3" MP3
  TRACK 01 AUDIO
    TITLE "0:"
    INDEX 01 00:00:00
  TRACK 02 AUDIO
    TITLE "12:cjc034_09384"
    INDEX 01 00:00:21
  TRACK 03 AUDIO
    TITLE "0:"
    INDEX 01 00:01:52
  TRACK 04 AUDIO
    TITLE "13:cjc034_09385"
    INDEX 01 00:02:12
  TRACK 05 AUDIO
    TITLE "0:"
    INDEX 01 00:04:31
  TRACK 06 AUDIO
    TITLE "14:cjc034_09386"
    INDEX 01 00:04:70
  TRACK 07 AUDIO
    TITLE "0:"
    INDEX 01 00:06:28
  TRACK 08 AUDIO
    TITLE "15:cjc034_09387"
    INDEX 01 00:06:61
  TRACK 09 AUDIO
    TITLE "0:"
    INDEX 01 00:10:49
  TRACK 10 AUDIO
    TITLE "12:cjc034_09388"
    INDEX 01 00:12:09
  TRACK 11 AUDIO
    TITLE "0:"
    INDEX 01 00:15:07
  TRACK 12 AUDIO
    TITLE "13:cjc034_09389"
    INDEX 01 00:15:36
  TRACK 13 AUDIO
    TITLE "0:"
    INDEX 01 00:16:48
  TRACK 14 AUDIO
    TITLE "14:cjc034_09390"
    INDEX 01 00:17:06
  TRACK 15 AUDIO
    TITLE "0:"
    INDEX 01 00:20:04
  TRACK 16 AUDIO
    TITLE "15:cjc034_09391"
    INDEX 01 00:20:36
  TRACK 17 AUDIO
    TITLE "0:"
    INDEX 01 00:25:25
  TRACK 18 AUDIO
    TITLE "12:cjc034_09392"
    INDEX 01 00:26:62
  TRACK 19 AUDIO
    TITLE "0:"
    INDEX 01 00:31:20
  TRACK 20 AUDIO
    TITLE "13:cjc034_09393"
    INDEX 01 00:31:53
  TRACK 21 AUDIO
    TITLE "0:"
    INDEX 01 00:33:05
  TRACK 22 AUDIO
    TITLE "14:cjc034_09394"
    INDEX 01 00:33:40
  TRACK 23 AUDIO
    TITLE "0:"
    INDEX 01 00:37:71
  TRACK 24 AUDIO
    TITLE "15:cjc034_09395"
    INDEX 01 00:38:30
  TRACK 25 AUDIO
    TITLE "0:"
    INDEX 01 00:42:10
  TRACK 26 AUDIO
    TITLE "12:cjc034_09396"
    INDEX 01 00:43:42
  TRACK 27 AUDIO
    TITLE "0:"
    INDEX 01 00:46:58
  TRACK 28 AUDIO
    TITLE "13:cjc034_09397"
    INDEX 01 00:47:17
  TRACK 29 AUDIO
    TITLE "0:"
    INDEX 01 00:48:34
  TRACK 30 AUDIO
    TITLE "14:cjc034_09398"
    INDEX 01 00:48:65
  TRACK 31 AUDIO
    TITLE "0:"
    INDEX 01 00:52:04
  TRACK 32 AUDIO
    TITLE "15:cjc034_09399"
    INDEX 01 00:52:41
  TRACK 33 AUDIO
    TITLE "0:"
    INDEX 01 00:55:34
  TRACK 34 AUDIO
    TITLE "12:cjc034_09400"
    INDEX 01 00:56:67
  TRACK 35 AUDIO
    TITLE "0:"
    INDEX 01 00:58:38
  TRACK 36 AUDIO
    TITLE "13:cjc034_09401"
    INDEX 01 00:58:69
  TRACK 37 AUDIO
    TITLE "0:"
    INDEX 01 01:01:52
  TRACK 38 AUDIO
    TITLE "14:cjc034_09402"
    INDEX 01 01:02:10
  TRACK 39 AUDIO
    TITLE "0:"
    INDEX 01 01:03:55
  TRACK 40 AUDIO
    TITLE "15:cjc034_09403"
    INDEX 01 01:04:13
  TRACK 41 AUDIO
    TITLE "0:"
    INDEX 01 01:08:23
  TRACK 42 AUDIO
    TITLE "12:cjc034_09404"
    INDEX 01 01:09:56
  TRACK 43 AUDIO
    TITLE "0:"
    INDEX 01 01:13:10
  TRACK 44 AUDIO
    TITLE "13:cjc034_09405"
    INDEX 01 01:13:59
  TRACK 45 AUDIO
    TITLE "0:"
    INDEX 01 01:17:20
  TRACK 46 AUDIO
    TITLE "14:cjc034_09406"
    INDEX 01 01:17:51
  TRACK 47 AUDIO
    TITLE "0:"
    INDEX 01 01:21:04
  TRACK 48 AUDIO
    TITLE "15:cjc034_09407"
    INDEX 01 01:21:57
  TRACK 49 AUDIO
    TITLE "0:"
    INDEX 01 01:25:57
  TRACK 50 AUDIO
    TITLE "12:cjc034_09408"
    INDEX 01 01:27:16
  TRACK 51 AUDIO
    TITLE "0:"
    INDEX 01 01:28:45
  TRACK 52 AUDIO
    TITLE "13:cjc034_09409"
    INDEX 01 01:29:03
  TRACK 53 AUDIO
    TITLE "0:"
    INDEX 01 01:32:64
  TRACK 54 AUDIO
    TITLE "14:cjc034_09410"
    INDEX 01 01:33:23
  TRACK 55 AUDIO
    TITLE "0:"
    INDEX 01 01:34:52
  TRACK 56 AUDIO
    TITLE "15:cjc034_09411"
    INDEX 01 01:35:14
  TRACK 57 AUDIO
    TITLE "0:"
    INDEX 01 01:41:34
  TRACK 58 AUDIO
    TITLE "12:cjc034_09412"
    INDEX 01 01:42:73
  TRACK 59 AUDIO
    TITLE "0:"
    INDEX 01 01:44:58
  TRACK 60 AUDIO
    TITLE "13:cjc034_09413"
    INDEX 01 01:45:18
  TRACK 61 AUDIO
    TITLE "0:"
    INDEX 01 01:47:01
  TRACK 62 AUDIO
    TITLE "14:cjc034_09414"
    INDEX 01 01:47:37
  TRACK 63 AUDIO
    TITLE "0:"
    INDEX 01 01:49:26
  TRACK 64 AUDIO
    TITLE "15:cjc034_09415"
    INDEX 01 01:49:59
  TRACK 65 AUDIO
    TITLE "0:"
    INDEX 01 01:54:70
  TRACK 66 AUDIO
    TITLE "12:cjc034_09416"
    INDEX 01 01:56:26
  TRACK 67 AUDIO
    TITLE "0:"
    INDEX 01 01:58:05
  TRACK 68 AUDIO
    TITLE "13:cjc034_09417"
    INDEX 01 01:58:38
  TRACK 69 AUDIO
    TITLE "0:"
    INDEX 01 02:00:72
  TRACK 70 AUDIO
    TITLE "14:cjc034_09418"
    INDEX 01 02:01:29
  TRACK 71 AUDIO
    TITLE "0:"
    INDEX 01 02:03:10
  TRACK 72 AUDIO
    TITLE "15:cjc034_09419"
    INDEX 01 02:03:39
  TRACK 73 AUDIO
    TITLE "0:"
    INDEX 01 02:08:37
  TRACK 74 AUDIO
    TITLE "12:cjc034_09420"
    INDEX 01 02:09:69
  TRACK 75 AUDIO
    TITLE "0:"
    INDEX 01 02:11:37
  TRACK 76 AUDIO
    TITLE "13:cjc034_09421"
    INDEX 01 02:11:70
  TRACK 77 AUDIO
    TITLE "0:"
    INDEX 01 02:14:55
  TRACK 78 AUDIO
    TITLE "14:cjc034_09422"
    INDEX 01 02:15:11
  TRACK 79 AUDIO
    TITLE "0:"
    INDEX 01 02:16:56
  TRACK 80 AUDIO
    TITLE "15:cjc034_09423"
    INDEX 01 02:17:14
  TRACK 81 AUDIO
    TITLE "0:"
    INDEX 01 02:21:20
